<svg id="ee6CmqaZiQ51" xmlns="http://www.w3.org/2000/svg" xmlns:xlink="http://www.w3.org/1999/xlink" viewBox="0 0 128 128" shape-rendering="geometricPrecision" text-rendering="geometricPrecision"><g id="ee6CmqaZiQ52" transform="matrix(4.304891 0 0 4.299119 -210.399073 -1214.319905)"><ellipse id="ee6CmqaZiQ53" rx="10.554729" ry="9.949716" transform="matrix(1.218414 0 0 1.280238 63.741235 297.33664)" fill="rgb(15,17,26)" stroke="rgb(238,255,255)" stroke-width="1"/><path id="ee6CmqaZiQ54" d="M-5.186994,0C-5.186994,-4.065342,-2.864698,-7.360953,0,-7.360953C2.864698,-7.360953,5.186994,-4.065342,5.186994,0C5.186994,4.065342,3.553464,6.53874,-0.037353,6.779738C-3.62817,7.020736,-5.35847,4.280532,-5.186994,0Z" transform="matrix(1 0 0 1.085728 63.778588 302.713692)" fill="rgb(255,203,107)" stroke="rgb(255,203,107)" stroke-width="0.5"/><ellipse id="ee6CmqaZiQ55" rx="10.554729" ry="9.949716" transform="matrix(1.218414 0 0 1.280238 63.741235 297.33664)" fill="none" stroke="rgb(238,255,255)" stroke-width="1"/><ellipse id="ee6CmqaZiQ56" rx="8.854775" ry="9.426985" transform="matrix(0.619832 0 0 0.550442 63.743855 292.366012)" fill="rgb(255,203,107)" stroke="rgb(15,17,26)" stroke-width="0.5"/><path id="ee6CmqaZiQ57" d="" transform="matrix(1 0 0 1 0.191937 -0.000001)" fill="none" stroke="rgb(63,87,135)" stroke-width="1.28"/><ellipse id="ee6CmqaZiQ58" rx="1.491868" ry="4.125995" transform="matrix(-0.691478 -0.743462 0.481009 -0.447376 58.556861 298.693978)" fill="rgb(255,203,107)" stroke="none" stroke-width="0"/><ellipse id="ee6CmqaZiQ59" rx="1.491868" ry="4.125995" transform="matrix(0.945005 -0.560664 0.46057 0.776295 55.540626 297.420017)" fill="rgb(255,203,107)" stroke="none" stroke-width="0"/><path id="ee6CmqaZiQ510" d="M-1.491868,0C-1.491868,-2.278724,-0.823936,-4.125995,0,-4.125995C0.823936,-4.125995,0.912791,-1.563553,0.912791,0.715171C0.912791,2.993895,-0.54109,4.269901,-1.849205,4.126292C-3.15732,3.982683,-1.597155,2.247496,-1.491868,0Z" transform="matrix(0.843883 -0.56457 0.683295 1.021345 70.197255 300.810517)" fill="rgb(255,203,107)" stroke="none" stroke-width="0"/></g></svg>