<svg id="eAELCDwlBHN1" xmlns="http://www.w3.org/2000/svg" xmlns:xlink="http://www.w3.org/1999/xlink" viewBox="0 0 640 480" shape-rendering="geometricPrecision" text-rendering="geometricPrecision"><style><![CDATA[#eAELCDwlBHN5_to {animation: eAELCDwlBHN5_to__to 4000ms linear infinite normal forwards}@keyframes eAELCDwlBHN5_to__to { 0% {transform: translate(313.625523px,179.92px);animation-timing-function: cubic-bezier(0.645,0.045,0.355,1)} 12.5% {transform: translate(293.625523px,187.92px);animation-timing-function: cubic-bezier(0.645,0.045,0.355,1)} 37.5% {transform: translate(293.63px,187.92px);animation-timing-function: cubic-bezier(0.645,0.045,0.355,1)} 62.5% {transform: translate(313.625523px,179.92px);animation-timing-function: cubic-bezier(0.645,0.045,0.355,1)} 100% {transform: translate(313.625523px,179.92px)}} #eAELCDwlBHN8_to {animation: eAELCDwlBHN8_to__to 4000ms linear infinite normal forwards}@keyframes eAELCDwlBHN8_to__to { 0% {transform: translate(213.954141px,232.83px)} 6% {transform: translate(213.954141px,228.834303px)} 12.5% {transform: translate(213.954141px,232.83px)} 18.5% {transform: translate(213.954141px,228.834303px)} 25% {transform: translate(213.954141px,232.83px)} 31.25% {transform: translate(213.954141px,228.834303px)} 37.5% {transform: translate(213.954141px,232.83px)} 43.75% {transform: translate(213.954141px,228.834303px)} 50% {transform: translate(213.954141px,232.83px)} 57.5% {transform: translate(213.954141px,228.834303px)} 62.5% {transform: translate(213.954141px,232.83px)} 70% {transform: translate(213.954141px,228.834303px)} 75% {transform: translate(213.954141px,232.83px)} 82.5% {transform: translate(213.954141px,228.834303px)} 87.5% {transform: translate(213.954141px,232.83px)} 92.5% {transform: translate(213.954141px,228.834303px)} 100% {transform: translate(213.954141px,232.83px)}} #eAELCDwlBHN9_to {animation: eAELCDwlBHN9_to__to 4000ms linear infinite normal forwards}@keyframes eAELCDwlBHN9_to__to { 0% {transform: translate(411.319258px,228.834303px)} 5% {transform: translate(412.32px,232.83px)} 11.5% {transform: translate(412.32px,228.83px)} 19% {transform: translate(412.32px,232.83px)} 25% {transform: translate(412.32px,228.83px)} 30% {transform: translate(412.32px,232.83px)} 37.5% {transform: translate(412.32px,228.83px)} 45% {transform: translate(412.32px,232.83px)} 50% {transform: translate(412.32px,228.83px)} 57.5% {transform: translate(412.32px,232.83px)} 62.5% {transform: translate(412.32px,228.83px)} 70% {transform: translate(412.32px,232.83px)} 75% {transform: translate(412.32px,228.83px)} 82.5% {transform: translate(412.32px,232.83px)} 87.5% {transform: translate(412.32px,228.83px)} 92.5% {transform: translate(412.32px,232.83px)} 100% {transform: translate(412.32px,228.83px)}}]]></style><rect id="eAELCDwlBHN2" width="333.163985" height="112.87523" rx="0" ry="0" transform="matrix(0.785521 0 0 1.451612 182.771864 22.506699)" fill="none" stroke="rgb(238,255,255)" stroke-width="5"/><rect id="eAELCDwlBHN3" width="218.030395" height="15.849985" rx="0" ry="0" transform="matrix(1.140255 0 0 1 189.32034 208.30003)" fill="none" stroke="rgb(238,255,255)" stroke-width="5"/><line id="eAELCDwlBHN4" x1="-320" y1="-0.588203" x2="320" y2="0.588202" transform="matrix(0.830226 0 0 1 320 224.738218)" fill="none" stroke="rgb(137,221,255)" stroke-width="5"/><g id="eAELCDwlBHN5_to" transform="translate(313.625523,179.92)"><ellipse id="eAELCDwlBHN5" rx="58.113593" ry="54.913188" transform="scale(1.305664,1.351734) translate(0.000001,0)" fill="rgb(15,17,26)" stroke="rgb(255,203,107)" stroke-width="5"/></g><path id="eAELCDwlBHN6" d="M237.748698,419.108663C232.671179,459.322733,231.915707,470.855723,277.652971,447.9195Q323.390235,424.983277,261.945148,432.042156L243.162384,419.500587" transform="matrix(-1.184763 0 0 1.847791 647.4152 -390.256157)" fill="none" stroke="rgb(255,203,107)" stroke-width="5"/><path id="eAELCDwlBHN7" d="M237.748698,419.108663C232.671179,459.322733,231.915707,470.855723,277.652971,447.9195Q323.390235,424.983277,261.945148,432.042156L243.162384,419.500587" transform="matrix(1 0 0 1.856308 19.469343 -394.161742)" fill="none" stroke="rgb(255,203,107)" stroke-width="5"/><g id="eAELCDwlBHN8_to" transform="translate(213.954141,232.83)"><path id="eAELCDwlBHN8" d="M217.272344,260.339306Q189.433976,230.242308,198.166379,208.30003Q206.898782,186.357752,215.998612,208.30003L231.707961,232.317224L217.272344,260.339306Z" transform="translate(-213.954139,-228.834303)" fill="rgb(15,17,26)" stroke="rgb(255,203,107)" stroke-width="5"/></g><g id="eAELCDwlBHN9_to" transform="translate(411.319258,228.834303)"><path id="eAELCDwlBHN9" d="M217.272344,260.339306Q189.433976,230.242308,198.166379,208.30003Q206.898782,186.357752,215.998612,208.30003L231.707961,232.317224L217.272344,260.339306Z" transform="scale(-1,1) translate(-213.954139,-228.834303)" fill="rgb(15,17,26)" stroke="rgb(255,203,107)" stroke-width="5"/></g><line id="eAELCDwlBHN10" x1="-32" y1="0" x2="32" y2="0" transform="matrix(0.001382 0.399293 3.607446 -0.012483 313.581248 460.294652)" fill="rgb(0,0,0)" stroke="rgb(137,221,255)" stroke-width="5"/><path id="eAELCDwlBHN11" d="M194.783088,310.531425Q196.963611,131.728565,325.515516,133.561162Q458.626333,133.909088,456.44581,310.531425C454.265287,487.153762,192.602565,489.334285,194.783088,310.531425Z" transform="matrix(0.815619 0 0 0.824109 48.040392 82.393032)" fill="rgb(15,17,26)" stroke="rgb(137,221,255)" stroke-width="5"/><line id="eAELCDwlBHN12" x1="-32" y1="0" x2="32" y2="0" transform="matrix(-3.084178 0 0 -2.722348 313.666951 472.573629)" fill="rgb(0,0,0)" stroke="rgb(137,221,255)" stroke-width="5"/><rect id="eAELCDwlBHN13" width="58.419918" height="168.243994" rx="0" ry="0" transform="matrix(1.284645 0 0 1.129978 489.701321 29.8)" fill="none" stroke="rgb(238,255,255)" stroke-width="5"/></svg>