<svg id="e5dkLvFWN8b1" xmlns="http://www.w3.org/2000/svg" xmlns:xlink="http://www.w3.org/1999/xlink"
     viewBox="0 0 186 230" shape-rendering="geometricPrecision" text-rendering="geometricPrecision">
    <g id="e5dkLvFWN8b2" transform="matrix(1.854915 0 0 1.854915 -84.100829 -511.896256)">
        <line id="e5dkLvFWN8b3" x1="0.310059" y1="-61.233925" x2="-0.310059" y2="61.233926"
              transform="matrix(1 0 0 1 81.261794 337.964935)" fill="none" stroke="rgb(238,255,255)" stroke-width="1"/>
        <rect id="e5dkLvFWN8b4" width="98.825316" height="122.467851" rx="3" ry="3"
              transform="matrix(1 0 0 1 46.063863 276.73101)" fill="none" stroke="rgb(210,219,237)" stroke-width="1"/>
        <path id="e5dkLvFWN8b5"
              d="M-5.186994,0C-5.186994,-4.065342,-2.864698,-7.360953,0,-7.360953C2.864698,-7.360953,5.186994,-4.065342,5.186994,0C5.186994,4.065342,3.553464,6.53874,-0.037353,6.779738C-3.62817,7.020736,-5.35847,4.280532,-5.186994,0Z"
              transform="matrix(1 0 0 1.085728 63.778588 302.713692)" fill="rgb(255,203,107)" stroke="rgb(255,203,107)"
              stroke-width="0.5"/>
        <ellipse id="e5dkLvFWN8b6" rx="10.554729" ry="9.949716"
                 transform="matrix(1.218414 0 0 1.280238 63.741235 297.33664)" fill="none" stroke="rgb(238,255,255)"
                 stroke-width="1"/>
        <ellipse id="e5dkLvFWN8b7" rx="8.854775" ry="9.426985"
                 transform="matrix(0.619832 0 0 0.550442 63.743855 292.366012)" fill="rgb(255,203,107)"
                 stroke="rgb(15,17,26)" stroke-width="0.5"/>
        <path id="e5dkLvFWN8b8" d="" transform="matrix(1 0 0 1 0.191937 -0.000001)" fill="none" stroke="rgb(63,87,135)"
              stroke-width="1.28"/>
        <ellipse id="e5dkLvFWN8b9" rx="1.491868" ry="4.125995"
                 transform="matrix(-0.691478 -0.743462 0.481009 -0.447376 58.556861 298.693978)" fill="rgb(255,203,107)"
                 stroke="none" stroke-width="0"/>
        <ellipse id="e5dkLvFWN8b10" rx="1.491868" ry="4.125995"
                 transform="matrix(0.945005 -0.560664 0.46057 0.776295 55.540626 297.420017)" fill="rgb(255,203,107)"
                 stroke="none" stroke-width="0"/>
        <path id="e5dkLvFWN8b11"
              d="M-1.491868,0C-1.491868,-2.278724,-0.823936,-4.125995,0,-4.125995C0.823936,-4.125995,0.912791,-1.563553,0.912791,0.715171C0.912791,2.993895,-0.54109,4.269901,-1.849205,4.126292C-3.15732,3.982683,-1.597155,2.247496,-1.491868,0Z"
              transform="matrix(0.843883 -0.56457 0.683295 1.021345 70.197255 300.810517)" fill="rgb(255,203,107)"
              stroke="none" stroke-width="0"/>
        <line id="e5dkLvFWN8b12" x1="-20.729392" y1="0" x2="19.797045" y2="0"
              transform="matrix(1.072562 0 0 1 112.846355 285.598635)" fill="none" stroke="rgb(238,255,255)"
              stroke-width="3" stroke-linecap="round"/>
        <line id="e5dkLvFWN8b13" x1="-20.729392" y1="0" x2="19.797045" y2="0"
              transform="matrix(1.072562 0 0 1 112.846355 315.598635)" fill="none" stroke="rgb(238,255,255)"
              stroke-width="3" stroke-linecap="round"/>
        <line id="e5dkLvFWN8b14" x1="-20.729392" y1="0" x2="19.797045" y2="0"
              transform="matrix(1.072562 0 0 1 112.846355 344.598635)" fill="none" stroke="rgb(238,255,255)"
              stroke-width="3" stroke-linecap="round"/>
        <line id="e5dkLvFWN8b15" x1="-20.729392" y1="0" x2="19.797045" y2="0"
              transform="matrix(1.072562 0 0 1 112.846355 373.598635)" fill="none" stroke="rgb(238,255,255)"
              stroke-width="3" stroke-linecap="round"/>
        <line id="e5dkLvFWN8b16" x1="-20.729392" y1="0" x2="19.76332" y2="0"
              transform="matrix(1.03512 0 0 -1 115.595067 380.510354)" fill="none" stroke="rgb(176,182,193)"
              stroke-width="2" stroke-linecap="round"/>
        <line id="e5dkLvFWN8b17" x1="-20.729392" y1="0" x2="19.76332" y2="0"
              transform="matrix(1.03512 0 0 -1 115.595067 385.510354)" fill="none" stroke="rgb(176,182,193)"
              stroke-width="2" stroke-linecap="round"/>
        <line id="e5dkLvFWN8b18" x1="-20.729392" y1="0" x2="19.76332" y2="0"
              transform="matrix(1.03512 0 0 -1 115.595067 390.510354)" fill="none" stroke="rgb(176,182,193)"
              stroke-width="2" stroke-linecap="round"/>
        <line id="e5dkLvFWN8b19" x1="-20.729392" y1="0" x2="19.76332" y2="0"
              transform="matrix(1.03512 0 0 -1 115.595067 351.510354)" fill="none" stroke="rgb(176,182,193)"
              stroke-width="2" stroke-linecap="round"/>
        <line id="e5dkLvFWN8b20" x1="-20.729392" y1="0" x2="19.76332" y2="0"
              transform="matrix(1.03512 0 0 -1 115.595067 356.510354)" fill="none" stroke="rgb(176,182,193)"
              stroke-width="2" stroke-linecap="round"/>
        <line id="e5dkLvFWN8b21" x1="-20.729392" y1="0" x2="19.76332" y2="0"
              transform="matrix(1.03512 0 0 -1 115.595067 361.510354)" fill="none" stroke="rgb(176,182,193)"
              stroke-width="2" stroke-linecap="round"/>
        <line id="e5dkLvFWN8b22" x1="-20.729392" y1="0" x2="19.76332" y2="0"
              transform="matrix(1.03512 0 0 -1 115.595067 322.510354)" fill="none" stroke="rgb(176,182,193)"
              stroke-width="2" stroke-linecap="round"/>
        <line id="e5dkLvFWN8b23" x1="-20.729392" y1="0" x2="19.76332" y2="0"
              transform="matrix(1.03512 0 0 -1 115.595067 327.510354)" fill="none" stroke="rgb(176,182,193)"
              stroke-width="2" stroke-linecap="round"/>
        <line id="e5dkLvFWN8b24" x1="-20.729392" y1="0" x2="19.76332" y2="0"
              transform="matrix(1.03512 0 0 -1 115.595067 332.510354)" fill="none" stroke="rgb(176,182,193)"
              stroke-width="2" stroke-linecap="round"/>
        <line id="e5dkLvFWN8b25" x1="-20.729392" y1="0" x2="19.76332" y2="0"
              transform="matrix(1.03512 0 0 -1 115.595067 292.510354)" fill="none" stroke="rgb(176,182,193)"
              stroke-width="2" stroke-linecap="round"/>
        <line id="e5dkLvFWN8b26" x1="-20.729392" y1="0" x2="19.76332" y2="0"
              transform="matrix(1.03512 0 0 -1 115.595067 297.510354)" fill="none" stroke="rgb(176,182,193)"
              stroke-width="2" stroke-linecap="round"/>
        <line id="e5dkLvFWN8b27" x1="-20.729392" y1="0" x2="19.76332" y2="0"
              transform="matrix(1.03512 0 0 -1 115.595067 302.510354)" fill="none" stroke="rgb(176,182,193)"
              stroke-width="2" stroke-linecap="round"/>
        <line id="e5dkLvFWN8b28" x1="-13.953684" y1="-0.000001" x2="-2.15007" y2="-0.000001"
              transform="matrix(1.072562 0 0 1 71.538411 384.510355)" fill="none" stroke="rgb(238,255,255)"
              stroke-width="3" stroke-linecap="round"/>
        <line id="e5dkLvFWN8b29" x1="-13.953683" y1="-0.000001" x2="-2.150069" y2="-0.000001"
              transform="matrix(1.072562 0 0 1 71.53841 389.510355)" fill="none" stroke="rgb(238,255,255)"
              stroke-width="3" stroke-linecap="round"/>
    </g>
</svg>